<svg xmlns="http://www.w3.org/2000/svg" width="12" height="47" viewBox="0 0 12 47">
  <defs>
    <style>
      .cls-1 {
        fill: #c99c47;
        fill-rule: evenodd;
      }
    </style>
  </defs>
  <path id="Rounded_Rectangle_4_copy_2" data-name="Rounded Rectangle 4 copy 2" class="cls-1" d="M356.928,1612.53l-9.818,22.01a1.234,1.234,0,0,0,.3,1.44,0.724,0.724,0,0,0,1.118-.38l9.818-22.01a1.233,1.233,0,0,0-.3-1.44A0.723,0.723,0,0,0,356.928,1612.53Zm0.545,45.94-9.818-21.88a1.23,1.23,0,0,1,.3-1.44,0.728,0.728,0,0,1,1.117.38l9.818,21.89a1.238,1.238,0,0,1-.3,1.44A0.733,0.733,0,0,1,357.473,1658.47Z" transform="translate(-347 -1612)"/>
</svg>
