<svg xmlns="http://www.w3.org/2000/svg" width="12" height="47" viewBox="0 0 12 47">
  <defs>
    <style>
      .cls-1 {
        fill: #c99c47;
        fill-rule: evenodd;
      }
    </style>
  </defs>
  <path id="Rounded_Rectangle_4_copy" data-name="Rounded Rectangle 4 copy" class="cls-1" d="M1563.07,1612.53l9.82,22.01a1.23,1.23,0,0,1-.3,1.44,0.727,0.727,0,0,1-1.12-.38l-9.81-22.01a1.228,1.228,0,0,1,.29-1.44A0.724,0.724,0,0,1,1563.07,1612.53Zm-0.54,45.94,9.81-21.88a1.225,1.225,0,0,0-.29-1.44,0.729,0.729,0,0,0-1.12.38l-9.82,21.89a1.234,1.234,0,0,0,.3,1.44A0.735,0.735,0,0,0,1562.53,1658.47Z" transform="translate(-1561 -1612)"/>
</svg>
